<?xml version="1.0" encoding="UTF-8" standalone="no"?>
<!DOCTYPE svg PUBLIC "-//W3C//DTD SVG 1.1//EN" "http://www.w3.org/Graphics/SVG/1.1/DTD/svg11.dtd">
<svg xmlns="http://www.w3.org/2000/svg" version="1.1" viewBox="0.00 0.00 413.00 321.00">
<path fill="#e21b3e" d="
  M 257.21 109.71
  Q 257.59 98.06 257.14 93.16
  C 256.60 87.17 247.09 87.83 242.17 87.92
  C 214.93 88.41 187.63 88.11 160.38 88.24
  C 154.11 88.26 150.77 89.67 151.05 96.53
  Q 151.23 100.82 151.15 116.02
  Q 151.15 116.55 150.62 116.54
  L 145.42 116.48
  Q 144.74 116.47 144.74 115.80
  Q 144.69 107.20 144.79 98.68
  C 144.89 89.45 147.48 82.26 157.71 82.26
  Q 202.68 82.23 247.65 82.26
  C 258.33 82.27 263.59 85.33 263.49 96.35
  Q 263.43 103.02 263.53 109.69
  Q 263.54 110.27 264.12 110.26
  Q 269.50 110.24 286.00 110.23
  C 295.57 110.23 299.22 116.30 299.23 124.98
  Q 299.26 151.42 299.25 177.86
  C 299.25 187.60 295.89 193.25 285.70 193.25
  Q 265.98 193.25 246.26 193.25
  Q 241.36 193.25 238.93 192.12
  C 230.95 188.39 232.19 180.49 232.26 173.25
  Q 232.26 172.75 232.76 172.75
  L 237.97 172.75
  Q 238.54 172.75 238.52 173.31
  C 238.40 178.37 236.90 187.21 244.75 187.23
  Q 265.84 187.28 286.94 187.21
  C 291.66 187.19 292.98 183.54 292.99 179.26
  Q 293.02 151.37 293.01 123.50
  Q 293.01 116.26 285.74 116.20
  Q 274.92 116.12 264.07 116.32
  Q 263.53 116.33 263.53 116.87
  Q 263.43 134.80 263.51 152.62
  C 263.54 159.99 259.52 164.94 251.82 165.37
  Q 243.38 165.83 232.81 165.36
  Q 232.27 165.34 232.26 164.79
  Q 232.21 143.48 232.27 122.31
  C 232.31 107.89 247.46 110.37 256.69 110.22
  Q 257.19 110.21 257.21 109.71
  Z
  M 239.29 159.66
  C 242.93 159.88 257.34 161.20 257.27 154.68
  Q 257.09 135.74 257.50 117.21
  A 0.91 0.90 0.9 0 0 256.60 116.29
  C 251.21 116.18 238.80 113.82 238.66 122.33
  Q 238.38 140.63 238.71 159.05
  Q 238.73 159.62 239.29 159.66
  Z"
/>
<path fill="#f1102f" d="
  M 161.97 93.35
  C 182.36 113.76 202.95 133.99 223.16 154.63
  A 0.77 0.77 0.0 0 1 222.51 155.93
  C 220.75 155.71 219.14 154.92 217.78 153.57
  Q 187.44 123.32 157.09 93.07
  Q 156.71 92.69 157.22 92.53
  C 158.97 91.95 160.54 91.92 161.97 93.35
  Z"
/>
<path fill="#f1102f" d="
  M 166.96 91.03
  A 0.29 0.29 0.0 0 1 167.37 91.03
  L 225.38 148.84
  A 6.65 0.92 44.9 0 1 229.44 154.19
  L 228.37 155.26
  A 6.65 0.92 44.9 0 1 223.01 151.22
  L 165.00 93.41
  A 0.29 0.29 0.0 0 1 164.99 93.00
  L 166.96 91.03
  Z"
/>
<path fill="#f1102f" d="
  M 177.41 93.32
  C 193.94 110.10 210.83 126.50 227.41 143.23
  C 228.62 144.45 229.14 145.92 228.66 147.50
  A 0.74 0.73 -59.0 0 1 227.44 147.81
  L 172.80 93.20
  Q 172.32 92.72 172.95 92.48
  C 174.46 91.90 176.17 92.07 177.41 93.32
  Z"
/>
<path fill="#f1102f" d="
  M 182.62 91.19
  A 0.21 0.21 0.0 0 1 182.91 91.19
  L 227.52 135.63
  A 3.66 0.63 44.9 0 1 229.67 138.66
  L 228.34 140.00
  A 3.66 0.63 44.9 0 1 225.30 137.86
  L 180.70 93.41
  A 0.21 0.21 0.0 0 1 180.70 93.11
  L 182.62 91.19
  Z"
/>
<path fill="#f1102f" d="
  M 190.18 91.19
  A 0.66 0.66 0.0 0 1 191.11 91.19
  L 222.59 122.67
  A 10.98 1.10 45.0 0 1 229.58 131.22
  L 228.66 132.14
  A 10.98 1.10 45.0 0 1 220.11 125.15
  L 188.63 93.67
  A 0.66 0.66 0.0 0 1 188.63 92.74
  L 190.18 91.19
  Z"
/>
<path fill="#f1102f" d="
  M 198.23 91.13
  A 0.20 0.20 0.0 0 1 198.52 91.13
  L 227.31 119.93
  A 4.24 1.43 45.0 0 1 229.30 123.94
  L 229.10 124.14
  A 4.24 1.43 45.0 0 1 225.09 122.15
  L 196.29 93.36
  A 0.20 0.20 0.0 0 1 196.29 93.07
  L 198.23 91.13
  Z"
/>
<path fill="#f1102f" d="
  M 229.24 117.44
  A 0.71 0.71 0.0 0 1 228.23 117.45
  L 210.43 99.83
  A 9.58 1.22 44.7 0 1 204.47 92.22
  L 205.07 91.62
  A 9.58 1.22 44.7 0 1 212.73 97.49
  L 230.54 115.11
  A 0.71 0.71 0.0 0 1 230.54 116.12
  L 229.24 117.44
  Z"
/>
<rect fill="#f1102f" x="-13.96" y="-1.53" transform="translate(222.60,101.93) rotate(44.7)" width="27.92" height="3.06" rx="1.50"/>
<path fill="#f1102f" d="
  M 236.46 109.15
  A 0.69 0.69 0.0 0 1 235.48 109.16
  L 223.53 97.37
  A 6.18 0.93 44.6 0 1 219.78 92.37
  L 220.73 91.40
  A 6.18 0.93 44.6 0 1 225.79 95.08
  L 237.74 106.87
  A 0.69 0.69 0.0 0 1 237.75 107.84
  L 236.46 109.15
  Z"
/>
<path fill="#e21b3e" d="
  M 229.03 91.39
  A 0.53 0.53 0.0 0 1 229.78 91.38
  L 241.74 102.97
  A 4.42 1.54 44.1 0 1 243.84 107.15
  L 243.73 107.26
  A 4.42 1.54 44.1 0 1 239.48 105.29
  L 227.53 93.71
  A 0.53 0.53 0.0 0 1 227.52 92.96
  L 229.03 91.39
  Z"
/>
<path fill="#e21b3e" d="
  M 236.87 90.81
  A 0.26 0.26 0.0 0 1 237.23 90.81
  L 246.83 100.44
  A 8.11 1.00 45.1 0 1 251.84 106.89
  L 250.88 107.85
  A 8.11 1.00 45.1 0 1 244.45 102.81
  L 234.85 93.18
  A 0.26 0.26 0.0 0 1 234.85 92.81
  L 236.87 90.81
  Z"
/>
<path fill="#e21b3e" d="
  M 242.39 93.06
  A 0.14 0.14 0.0 0 1 242.39 92.86
  L 242.44 92.81
  A 4.18 2.95 44.5 0 1 247.48 93.64
  L 252.79 98.85
  A 4.18 2.95 44.5 0 1 253.70 103.88
  L 253.66 103.93
  A 0.14 0.14 0.0 0 1 253.46 103.94
  L 242.39 93.06
  Z"
/>
<path fill="#e21b3e" d="
  M 250.37 92.99
  A 0.17 0.17 0.0 0 1 250.37 92.75
  L 250.42 92.71
  A 2.19 1.87 44.8 0 1 253.29 92.92
  L 253.57 93.21
  A 2.19 1.87 44.8 0 1 253.81 96.08
  L 253.77 96.12
  A 0.17 0.17 0.0 0 1 253.53 96.12
  L 250.37 92.99
  Z"
/>
<path fill="#f1102f" d="
  M 155.71 95.04
  L 214.69 153.81
  Q 216.83 155.94 213.82 155.85
  Q 213.40 155.84 212.23 155.37
  Q 211.49 155.06 210.87 154.45
  Q 183.47 127.15 156.15 99.77
  C 154.67 98.29 154.73 97.16 155.06 95.25
  Q 155.19 94.52 155.71 95.04
  Z"
/>
<path fill="#f1102f" d="
  M 155.30 102.61
  A 0.34 0.34 0.0 0 1 155.78 102.61
  L 202.36 149.19
  A 8.35 1.07 45.0 0 1 207.50 155.85
  L 206.74 156.61
  A 8.35 1.07 45.0 0 1 200.08 151.47
  L 153.50 104.89
  A 0.34 0.34 0.0 0 1 153.50 104.41
  L 155.30 102.61
  Z"
/>
<path fill="#e21b3e" d="
  M 195.13 154.11
  C 188.30 147.46 181.44 140.67 174.76 133.84
  Q 173.31 132.37 171.57 129.43
  Q 168.47 124.18 163.02 121.29
  C 160.07 119.73 154.18 114.55 154.85 111.04
  A 0.72 0.72 0.0 0 1 156.07 110.66
  L 199.39 154.03
  Q 200.46 155.10 199.05 155.61
  C 197.94 156.02 196.06 155.02 195.13 154.11
  Z"
/>
<path fill="#e21b3e" d="
  M 156.27 120.51
  Q 154.53 120.08 155.05 118.20
  Q 155.26 117.46 155.71 118.08
  L 156.85 119.65
  A 0.55 0.55 0.0 0 1 156.27 120.51
  Z"
/>
<path fill="#f1102f" d="
  M 246.86 120.70
  A 0.16 0.16 0.0 0 1 246.86 120.48
  L 246.91 120.42
  A 4.59 3.06 44.3 0 1 252.34 121.44
  L 252.61 121.70
  A 4.59 3.06 44.3 0 1 253.76 127.10
  L 253.70 127.15
  A 0.16 0.16 0.0 0 1 253.47 127.16
  L 246.86 120.70
  Z"
/>
<rect fill="#f1102f" x="-1.52" y="-8.71" transform="translate(248.25,127.53) rotate(-44.5)" width="3.04" height="17.42" rx="1.47"/>
<path fill="#e21b3e" d="
  M 188.66 187.25
  L 219.95 187.25
  Q 220.59 187.25 220.61 186.61
  L 220.80 180.80
  Q 220.83 180.02 220.05 180.00
  L 210.08 179.67
  A 2.41 2.41 0.0 0 1 207.75 177.26
  L 207.75 160.13
  A 0.48 0.48 0.0 0 1 208.24 159.65
  L 213.62 159.79
  A 0.65 0.64 0.9 0 1 214.25 160.43
  L 214.25 173.52
  A 0.68 0.68 0.0 0 0 215.03 174.19
  C 225.85 172.64 227.78 176.81 227.22 186.99
  C 226.95 191.94 223.95 193.25 219.28 193.25
  Q 202.89 193.25 186.51 193.25
  C 180.48 193.25 181.47 183.32 181.98 178.91
  C 182.63 173.26 189.63 173.64 193.74 174.23
  Q 194.39 174.32 194.40 173.67
  L 194.53 166.18
  A 0.67 0.66 0.8 0 0 193.86 165.50
  L 170.26 165.50
  A 0.48 0.48 0.0 0 0 169.78 165.98
  C 169.62 177.72 173.17 193.18 155.67 193.23
  Q 146.28 193.26 136.88 193.26
  C 126.82 193.25 121.27 190.24 121.26 179.75
  Q 121.24 159.44 121.25 139.12
  Q 121.25 133.63 122.04 131.46
  C 124.26 125.33 131.28 123.20 137.46 123.92
  Q 138.00 123.98 138.00 124.52
  L 138.00 129.47
  Q 138.00 130.02 137.45 130.01
  C 127.16 129.75 127.86 132.42 127.77 141.09
  Q 127.57 160.82 127.64 180.55
  C 127.66 184.82 129.46 187.17 133.76 187.20
  Q 145.05 187.29 156.37 187.13
  C 160.43 187.08 163.77 184.89 163.75 180.75
  Q 163.71 173.46 163.77 166.62
  A 1.27 1.27 0.0 0 0 162.42 165.33
  C 154.23 165.85 145.51 163.87 144.87 154.05
  Q 144.45 147.58 144.87 124.36
  Q 144.87 123.88 145.36 123.86
  C 154.63 123.47 164.38 122.52 168.47 130.80
  C 171.41 136.77 170.01 150.81 169.99 158.15
  Q 169.98 159.70 171.54 159.69
  L 199.92 159.57
  A 1.15 1.15 0.0 0 1 201.08 160.74
  L 200.81 177.81
  Q 200.80 178.38 200.36 178.74
  C 197.65 180.92 192.02 179.59 188.64 179.82
  Q 187.99 179.87 188.00 180.51
  L 188.01 186.60
  A 0.65 0.65 0.0 0 0 188.66 187.25
  Z
  M 163.71 137.69
  C 163.64 130.83 157.91 128.79 152.14 130.26
  A 1.62 1.61 -8.7 0 0 150.92 131.91
  Q 151.32 139.78 151.25 147.23
  Q 151.19 153.73 151.26 154.08
  C 152.42 159.77 157.72 160.09 163.23 159.33
  Q 163.71 159.27 163.71 158.79
  Q 163.83 148.20 163.71 137.69
  Z"
/>
<rect fill="#f1102f" x="-1.51" y="-9.06" transform="translate(248.06,135.02) rotate(-43.9)" width="3.02" height="18.12" rx="1.48"/>
<ellipse fill="#e21b3e" cx="0.00" cy="0.00" transform="translate(157.32,137.53) rotate(53.2)" rx="4.27" ry="1.53"/>
<rect fill="#e21b3e" x="-1.52" y="-9.03" transform="translate(248.03,142.78) rotate(-44.0)" width="3.04" height="18.06" rx="1.48"/>
<path fill="#e21b3e" d="
  M 192.55 154.90
  A 0.11 0.11 0.0 0 1 192.55 155.05
  L 192.50 155.09
  A 4.52 2.99 44.8 0 1 187.19 154.03
  L 174.64 141.57
  A 4.52 2.99 44.8 0 1 173.54 136.27
  L 173.59 136.22
  A 0.11 0.11 0.0 0 1 173.74 136.22
  L 192.55 154.90
  Z"
/>
<path fill="#e21b3e" d="
  M 158.91 148.96
  C 156.40 146.76 154.05 145.31 155.08 141.68
  Q 155.25 141.08 155.70 141.52
  C 157.64 143.45 160.59 145.51 159.95 148.61
  A 0.63 0.63 0.0 0 1 158.91 148.96
  Z"
/>
<rect fill="#e21b3e" x="-1.53" y="-7.98" transform="translate(247.09,149.57) rotate(-44.4)" width="3.06" height="15.96" rx="1.49"/>
<path fill="#e21b3e" d="
  M 184.69 154.95
  A 0.02 0.02 0.0 0 1 184.69 154.98
  L 184.67 155.00
  A 5.27 3.13 44.8 0 1 178.73 153.50
  L 175.01 149.81
  A 5.27 3.13 44.8 0 1 173.48 143.88
  L 173.50 143.86
  A 0.02 0.02 0.0 0 1 173.53 143.86
  L 184.69 154.95
  Z"
/>
<path fill="#e21b3e" d="
  M 160.70 154.63
  A 0.15 0.15 0.0 0 1 160.68 154.84
  L 160.67 154.85
  A 3.69 3.10 49.9 0 1 155.93 154.03
  L 155.68 153.73
  A 3.69 3.10 49.9 0 1 155.68 148.92
  L 155.68 148.91
  A 0.15 0.15 0.0 0 1 155.89 148.93
  L 160.70 154.63
  Z"
/>
<path fill="#e21b3e" d="
  M 246.80 154.97
  A 0.16 0.16 0.0 0 1 246.79 155.20
  L 246.76 155.23
  A 3.05 2.91 47.6 0 1 242.55 154.94
  L 242.44 154.82
  A 3.05 2.91 47.6 0 1 242.54 150.61
  L 242.57 150.57
  A 0.16 0.16 0.0 0 1 242.80 150.58
  L 246.80 154.97
  Z"
/>
<path fill="#e21b3e" d="
  M 176.06 155.79
  L 173.55 155.45
  A 0.57 0.57 0.0 0 1 173.05 154.89
  L 173.06 152.35
  A 0.57 0.57 0.0 0 1 174.06 151.97
  L 176.57 154.85
  A 0.57 0.57 0.0 0 1 176.06 155.79
  Z"
/>
<circle fill="#e21b3e" cx="145.02" cy="176.71" r="3.82"/>
<circle fill="#e21b3e" cx="265.70" cy="176.70" r="3.72"/>
<path fill="#000000" d="
  M 244.87 234.49
  A 12.99 12.99 0.0 0 1 231.88 247.48
  L 228.48 247.48
  A 12.99 12.99 0.0 0 1 215.49 234.49
  L 215.49 221.91
  A 12.99 12.99 0.0 0 1 228.48 208.92
  L 231.88 208.92
  A 12.99 12.99 0.0 0 1 244.87 221.91
  L 244.87 234.49
  Z
  M 237.7410 221.8734
  A 7.26 7.26 0.0 0 0 230.4937 214.6008
  L 229.6137 214.5993
  A 7.26 7.26 0.0 0 0 222.3410 221.8466
  L 222.3190 234.4466
  A 7.26 7.26 0.0 0 0 229.5663 241.7192
  L 230.4463 241.7207
  A 7.26 7.26 0.0 0 0 237.7190 234.4734
  L 237.7410 221.8734
  Z"
/>
<path fill="#000000" d="
  M 322.4342 234.6773
  A 12.94 12.94 0.0 0 1 309.3818 247.5039
  L 306.0219 247.4746
  A 12.94 12.94 0.0 0 1 293.1953 234.4222
  L 293.3058 221.7627
  A 12.94 12.94 0.0 0 1 306.3582 208.9361
  L 309.7181 208.9654
  A 12.94 12.94 0.0 0 1 322.5447 222.0178
  L 322.4342 234.6773
  Z
  M 315.8811 222.1377
  A 7.47 7.47 0.0 0 0 308.4372 214.6417
  L 307.5172 214.6385
  A 7.47 7.47 0.0 0 0 300.0212 222.0824
  L 299.9789 234.1823
  A 7.47 7.47 0.0 0 0 307.4228 241.6783
  L 308.3428 241.6815
  A 7.47 7.47 0.0 0 0 315.8388 234.2376
  L 315.8811 222.1377
  Z"
/>
<path fill="#000000" d="
  M 79.77 232.64
  A 0.51 0.51 0.0 0 0 80.69 232.64
  L 91.67 209.82
  A 1.02 1.01 14.1 0 1 92.61 209.26
  L 97.53 209.41
  A 0.75 0.74 1.2 0 1 98.25 210.15
  L 98.25 246.00
  A 1.25 1.25 0.0 0 1 97.00 247.25
  L 92.66 247.25
  A 1.16 1.15 89.7 0 1 91.51 246.10
  L 91.44 226.30
  A 0.55 0.55 0.0 0 0 90.38 226.08
  Q 87.45 232.82 83.94 239.51
  C 82.59 242.09 80.74 242.70 78.12 241.71
  Q 77.61 241.52 77.35 241.03
  L 69.47 225.78
  A 0.46 0.45 31.2 0 0 68.61 225.99
  L 68.81 246.56
  A 0.84 0.84 0.0 0 1 67.93 247.41
  L 62.85 247.18
  A 0.89 0.88 -89.0 0 1 62.00 246.29
  L 62.00 209.95
  A 0.76 0.76 0.0 0 1 62.82 209.19
  L 68.01 209.57
  Q 68.56 209.61 68.80 210.11
  L 79.77 232.64
  Z"
/>
<path fill="#000000" d="
  M 129.35 221.47
  Q 122.47 233.38 114.48 244.86
  C 112.56 247.62 110.70 247.93 107.64 247.09
  A 0.86 0.86 0.0 0 1 107.00 246.26
  L 107.00 210.10
  A 0.90 0.90 0.0 0 1 107.99 209.20
  L 112.89 209.67
  A 0.76 0.76 0.0 0 1 113.59 210.44
  L 113.28 235.28
  A 0.46 0.46 0.0 0 0 114.14 235.53
  Q 121.22 224.13 128.53 212.82
  C 130.68 209.50 132.71 207.99 136.53 209.79
  Q 137.00 210.01 137.00 210.53
  L 136.99 245.61
  A 1.69 1.69 0.0 0 1 135.27 247.30
  L 131.23 247.23
  A 0.75 0.75 0.0 0 1 130.50 246.48
  L 130.50 221.78
  A 0.62 0.62 0.0 0 0 129.35 221.47
  Z"
/>
<path fill="#000000" d="
  M 152.39 231.61
  C 152.32 236.12 153.41 243.91 152.01 246.92
  A 0.88 0.87 14.0 0 1 151.17 247.42
  L 146.70 247.18
  A 0.73 0.73 0.0 0 1 146.00 246.45
  L 146.00 210.15
  A 0.84 0.83 -89.3 0 1 146.85 209.31
  L 151.81 209.41
  A 0.71 0.70 -89.6 0 1 152.50 210.12
  L 152.50 224.01
  A 0.81 0.80 3.2 0 0 153.22 224.81
  C 164.37 225.98 164.82 218.30 167.18 209.97
  Q 167.37 209.30 168.06 209.32
  L 173.51 209.53
  Q 174.20 209.55 173.96 210.20
  C 171.96 215.62 171.02 222.73 166.69 226.49
  A 1.06 1.06 0.0 0 0 166.67 228.07
  C 170.59 231.61 171.77 236.71 173.01 241.65
  C 173.34 242.92 174.89 245.01 174.33 246.95
  A 0.71 0.71 0.0 0 1 173.61 247.46
  L 168.37 247.17
  A 1.25 1.24 -5.3 0 1 167.23 246.23
  C 165.44 238.90 164.03 227.81 152.94 230.90
  Q 152.40 231.05 152.39 231.61
  Z"
/>
<path fill="#000000" d="
  M 197.50 209.21
  C 212.64 209.14 213.34 230.48 198.24 232.43
  C 195.70 232.76 192.18 232.35 189.23 232.47
  A 0.95 0.95 0.0 0 0 188.32 233.44
  L 188.57 246.01
  A 1.14 1.14 0.0 0 1 187.49 247.17
  L 182.53 247.45
  A 0.74 0.74 0.0 0 1 181.75 246.71
  L 181.75 210.01
  A 0.67 0.67 0.0 0 1 182.41 209.34
  Q 189.81 209.25 197.50 209.21
  Z
  M 188.45 216.44
  L 188.45 224.58
  A 1.70 1.70 0.0 0 0 190.15 226.28
  L 195.90 226.28
  A 6.87 5.49 -0.0 0 0 202.77 220.79
  L 202.77 220.23
  A 6.87 5.49 0.0 0 0 195.90 214.74
  L 190.15 214.74
  A 1.70 1.70 0.0 0 0 188.45 216.44
  Z"
/>
<path fill="#000000" d="
  M 255.27 248.09
  L 255.53 254.28
  A 1.30 1.29 -1.0 0 1 254.22 255.63
  L 250.05 255.58
  Q 249.41 255.57 249.36 254.93
  C 249.07 251.23 249.13 247.54 248.93 243.89
  Q 248.75 240.56 252.29 240.67
  A 1.00 0.99 -71.8 0 0 253.15 240.23
  C 258.07 233.00 257.02 221.71 257.48 213.30
  Q 257.49 213.08 257.20 211.22
  C 256.94 209.63 258.23 209.22 259.57 209.29
  Q 270.02 209.81 280.87 209.19
  Q 282.75 209.08 282.75 210.97
  L 282.75 240.45
  Q 282.75 240.90 283.20 240.98
  L 285.39 241.35
  A 0.97 0.97 0.0 0 1 286.20 242.28
  L 286.37 255.00
  A 0.63 0.62 89.5 0 1 285.75 255.64
  L 280.88 255.67
  Q 280.01 255.68 280.01 254.81
  L 280.00 248.23
  A 1.01 1.01 0.0 0 0 278.98 247.23
  L 255.91 247.41
  Q 255.24 247.42 255.27 248.09
  Z
  M 263.56 215.68
  C 263.21 224.91 263.68 232.55 260.55 240.42
  A 0.61 0.60 -79.1 0 0 261.11 241.25
  L 275.25 241.25
  A 1.00 1.00 0.0 0 0 276.25 240.25
  L 276.25 215.75
  A 0.75 0.75 0.0 0 0 275.50 215.00
  L 264.27 215.00
  A 0.71 0.70 0.8 0 0 263.56 215.68
  Z"
/>
<path fill="#000000" d="
  M 360.94 226.26
  A 0.58 0.58 0.0 0 0 359.83 226.01
  Q 356.36 233.28 352.96 239.99
  C 351.18 243.52 347.34 242.31 345.66 239.20
  Q 341.97 232.35 338.69 225.39
  A 0.39 0.38 -57.9 0 0 337.96 225.56
  L 338.15 246.28
  A 1.12 1.12 0.0 0 1 336.97 247.41
  L 332.20 247.19
  A 0.74 0.74 0.0 0 1 331.50 246.45
  L 331.50 209.93
  A 0.71 0.71 0.0 0 1 332.27 209.22
  L 337.44 209.64
  A 0.95 0.95 0.0 0 1 338.21 210.18
  L 349.08 232.73
  A 0.48 0.48 0.0 0 0 349.94 232.73
  L 360.90 209.98
  A 0.94 0.94 0.0 0 1 361.76 209.45
  L 366.93 209.60
  Q 367.48 209.62 367.48 210.17
  L 367.73 246.20
  A 1.05 1.05 0.0 0 1 366.68 247.26
  L 361.90 247.24
  A 0.91 0.90 0.0 0 1 360.99 246.34
  L 360.94 226.26
  Z"
/>
<path fill="#e21b3e" d="
  M 177.61 269.70
  C 170.03 267.55 172.82 253.17 182.25 258.09
  A 0.72 0.72 0.0 0 1 182.49 259.18
  L 181.71 260.17
  A 0.74 0.73 -51.8 0 1 180.67 260.30
  Q 178.29 258.46 176.72 260.73
  Q 176.42 261.16 176.45 261.68
  L 176.65 265.94
  A 1.80 1.79 -19.8 0 0 179.52 267.29
  Q 180.37 266.65 181.47 266.74
  A 1.10 1.10 0.0 0 1 182.07 268.69
  Q 180.00 270.37 177.61 269.70
  Z"
/>
<path fill="#e21b3e" d="
  M 194.13 268.50
  C 187.50 272.94 181.97 265.75 185.54 259.59
  C 188.56 254.37 197.08 257.66 194.78 264.39
  Q 194.64 264.79 194.22 264.79
  L 188.01 264.83
  A 0.69 0.69 0.0 0 0 187.65 266.11
  L 189.35 267.19
  Q 189.75 267.44 190.21 267.34
  L 193.34 266.65
  A 1.02 1.02 0.0 0 1 194.13 268.50
  Z
  M 192.2898 261.1097
  A 2.17 1.62 -0.8 0 0 190.0974 259.5202
  A 2.17 1.62 -0.8 0 0 187.9502 261.1703
  A 2.17 1.62 -0.8 0 0 190.1426 262.7598
  A 2.17 1.62 -0.8 0 0 192.2898 261.1097
  Z"
/>
<path fill="#e21b3e" d="
  M 200.71 270.21
  L 200.98 272.98
  A 0.86 0.85 -18.5 0 1 200.57 273.79
  Q 199.34 274.54 198.08 273.86
  Q 197.60 273.61 197.61 273.06
  L 197.68 258.08
  Q 197.68 257.48 198.27 257.55
  Q 200.39 257.80 204.22 257.20
  C 209.66 256.34 210.09 266.73 206.92 268.85
  C 205.46 269.83 203.16 269.51 201.36 269.50
  A 0.65 0.65 0.0 0 0 200.71 270.21
  Z
  M 205.7670 261.7984
  A 2.20 2.20 0.0 0 0 203.6019 259.5641
  L 203.1419 259.5569
  A 2.20 2.20 0.0 0 0 200.9076 261.7220
  L 200.8530 265.2016
  A 2.20 2.20 0.0 0 0 203.0181 267.4359
  L 203.4781 267.4431
  A 2.20 2.20 0.0 0 0 205.7124 265.2780
  L 205.7670 261.7984
  Z"
/>
<path fill="#e21b3e" d="
  M 232.15 263.53
  A 0.46 0.46 0.0 0 0 231.32 263.28
  L 227.03 269.22
  A 1.65 1.65 0.0 0 1 224.05 268.27
  L 223.99 258.47
  A 0.90 0.89 76.2 0 1 224.46 257.68
  Q 225.85 256.92 226.56 257.52
  Q 227.03 257.92 227.09 259.11
  Q 227.22 261.68 226.92 264.02
  A 0.48 0.47 -24.7 0 0 227.79 264.34
  L 232.23 257.70
  A 1.33 1.33 0.0 0 1 234.67 258.40
  L 235.03 269.21
  A 0.57 0.56 89.5 0 1 234.47 269.79
  L 232.93 269.79
  Q 232.32 269.79 232.30 269.18
  L 232.15 263.53
  Z"
/>
<path fill="#e21b3e" d="
  M 242.16 267.47
  C 243.31 267.50 244.47 266.62 245.37 266.74
  Q 246.14 266.84 246.47 267.67
  A 0.80 0.80 0.0 0 1 246.14 268.64
  Q 241.22 271.58 237.85 267.16
  A 1.72 1.71 -63.8 0 1 237.50 266.12
  C 237.49 259.88 237.72 255.42 245.98 257.69
  A 1.14 1.14 0.0 0 1 246.03 259.87
  Q 244.76 260.28 243.63 259.70
  A 2.15 2.14 -72.2 0 0 240.52 261.30
  Q 240.10 264.21 241.28 266.88
  Q 241.53 267.46 242.16 267.47
  Z"
/>
<path fill="#f1102f" d="
  M 211.68 269.57
  A 0.99 0.99 0.0 0 1 210.81 268.59
  L 210.77 258.87
  A 1.40 1.40 0.0 0 1 212.20 257.46
  L 218.83 257.60
  A 2.48 2.48 0.0 0 1 221.04 261.09
  C 219.96 263.50 222.01 265.54 221.15 267.58
  C 219.90 270.57 214.31 269.87 211.68 269.57
  Z
  M 218.0900 261.0828
  A 2.07 1.28 -0.2 0 0 216.0155 259.8100
  A 2.07 1.28 -0.2 0 0 213.9500 261.0972
  A 2.07 1.28 -0.2 0 0 216.0245 262.3700
  A 2.07 1.28 -0.2 0 0 218.0900 261.0828
  Z
  M 218.2829 265.9544
  A 2.19 1.56 -4.6 0 0 215.9749 264.5750
  A 2.19 1.56 -4.6 0 0 213.9171 266.3056
  A 2.19 1.56 -4.6 0 0 216.2251 267.6850
  A 2.19 1.56 -4.6 0 0 218.2829 265.9544
  Z"
/>
</svg>
